<mxfile host="app.diagrams.net" modified="2023-04-26T04:13:22.379Z" agent="Mozilla/5.0 (Macintosh; Intel Mac OS X 10_15_7) AppleWebKit/605.1.15 (KHTML, like Gecko) Version/16.4 Safari/605.1.15" etag="KJDjX412amj5TQNPsa23" version="21.2.2" type="device">
  <diagram name="Page-1" id="9i-yjXbVD_u8_a7-DjK-">
    <mxGraphModel dx="591" dy="358" grid="1" gridSize="10" guides="1" tooltips="1" connect="1" arrows="1" fold="1" page="1" pageScale="1" pageWidth="827" pageHeight="1169" math="0" shadow="0">
      <root>
        <mxCell id="0" />
        <mxCell id="1" parent="0" />
        <mxCell id="TYZREBzoiEDtfBMZYVXi-1" value="Target" style="rounded=0;whiteSpace=wrap;html=1;fillColor=#dae8fc;strokeColor=#6c8ebf;" vertex="1" parent="1">
          <mxGeometry x="400" y="80" width="120" height="60" as="geometry" />
        </mxCell>
        <mxCell id="TYZREBzoiEDtfBMZYVXi-7" style="edgeStyle=orthogonalEdgeStyle;rounded=0;orthogonalLoop=1;jettySize=auto;html=1;exitX=1;exitY=0.5;exitDx=0;exitDy=0;entryX=0;entryY=0.5;entryDx=0;entryDy=0;" edge="1" parent="1" source="TYZREBzoiEDtfBMZYVXi-2" target="TYZREBzoiEDtfBMZYVXi-3">
          <mxGeometry relative="1" as="geometry" />
        </mxCell>
        <mxCell id="TYZREBzoiEDtfBMZYVXi-8" style="edgeStyle=orthogonalEdgeStyle;rounded=0;orthogonalLoop=1;jettySize=auto;html=1;exitX=0.5;exitY=0;exitDx=0;exitDy=0;entryX=0;entryY=0.5;entryDx=0;entryDy=0;" edge="1" parent="1" source="TYZREBzoiEDtfBMZYVXi-2" target="TYZREBzoiEDtfBMZYVXi-1">
          <mxGeometry relative="1" as="geometry" />
        </mxCell>
        <mxCell id="TYZREBzoiEDtfBMZYVXi-9" style="edgeStyle=orthogonalEdgeStyle;rounded=0;orthogonalLoop=1;jettySize=auto;html=1;exitX=0.5;exitY=1;exitDx=0;exitDy=0;entryX=0;entryY=0.5;entryDx=0;entryDy=0;" edge="1" parent="1" source="TYZREBzoiEDtfBMZYVXi-2" target="TYZREBzoiEDtfBMZYVXi-4">
          <mxGeometry relative="1" as="geometry" />
        </mxCell>
        <mxCell id="TYZREBzoiEDtfBMZYVXi-2" value="Library" style="rounded=0;whiteSpace=wrap;html=1;fillColor=#dae8fc;strokeColor=#6c8ebf;" vertex="1" parent="1">
          <mxGeometry x="210" y="180" width="120" height="60" as="geometry" />
        </mxCell>
        <mxCell id="TYZREBzoiEDtfBMZYVXi-5" style="edgeStyle=orthogonalEdgeStyle;rounded=0;orthogonalLoop=1;jettySize=auto;html=1;exitX=0.5;exitY=0;exitDx=0;exitDy=0;entryX=0.5;entryY=1;entryDx=0;entryDy=0;" edge="1" parent="1" source="TYZREBzoiEDtfBMZYVXi-3" target="TYZREBzoiEDtfBMZYVXi-1">
          <mxGeometry relative="1" as="geometry" />
        </mxCell>
        <mxCell id="TYZREBzoiEDtfBMZYVXi-3" value="Feature" style="rounded=0;whiteSpace=wrap;html=1;fillColor=#dae8fc;strokeColor=#6c8ebf;" vertex="1" parent="1">
          <mxGeometry x="400" y="180" width="120" height="60" as="geometry" />
        </mxCell>
        <mxCell id="TYZREBzoiEDtfBMZYVXi-6" style="edgeStyle=orthogonalEdgeStyle;rounded=0;orthogonalLoop=1;jettySize=auto;html=1;exitX=0.5;exitY=0;exitDx=0;exitDy=0;entryX=1;entryY=0.5;entryDx=0;entryDy=0;" edge="1" parent="1" source="TYZREBzoiEDtfBMZYVXi-4" target="TYZREBzoiEDtfBMZYVXi-1">
          <mxGeometry relative="1" as="geometry" />
        </mxCell>
        <mxCell id="TYZREBzoiEDtfBMZYVXi-4" value="Domain" style="rounded=0;whiteSpace=wrap;html=1;fillColor=#dae8fc;strokeColor=#6c8ebf;" vertex="1" parent="1">
          <mxGeometry x="520" y="280" width="120" height="60" as="geometry" />
        </mxCell>
        <mxCell id="TYZREBzoiEDtfBMZYVXi-10" value="" style="shape=image;verticalLabelPosition=bottom;labelBackgroundColor=default;verticalAlign=top;aspect=fixed;imageAspect=0;image=https://upload.wikimedia.org/wikipedia/commons/thumb/0/06/Kotlin_Icon.svg/2048px-Kotlin_Icon.svg.png;" vertex="1" parent="1">
          <mxGeometry x="210" y="222" width="18" height="18" as="geometry" />
        </mxCell>
        <mxCell id="TYZREBzoiEDtfBMZYVXi-11" value="" style="shape=image;verticalLabelPosition=bottom;labelBackgroundColor=default;verticalAlign=top;aspect=fixed;imageAspect=0;image=https://upload.wikimedia.org/wikipedia/commons/thumb/0/06/Kotlin_Icon.svg/2048px-Kotlin_Icon.svg.png;" vertex="1" parent="1">
          <mxGeometry x="520" y="322" width="18" height="18" as="geometry" />
        </mxCell>
        <mxCell id="TYZREBzoiEDtfBMZYVXi-12" value="" style="shape=image;verticalLabelPosition=bottom;labelBackgroundColor=default;verticalAlign=top;aspect=fixed;imageAspect=0;image=https://upload.wikimedia.org/wikipedia/commons/thumb/d/d7/Android_robot.svg/1745px-Android_robot.svg.png;" vertex="1" parent="1">
          <mxGeometry x="400" y="222.39000000000001" width="15" height="17.61" as="geometry" />
        </mxCell>
        <mxCell id="TYZREBzoiEDtfBMZYVXi-13" value="" style="shape=image;verticalLabelPosition=bottom;labelBackgroundColor=default;verticalAlign=top;aspect=fixed;imageAspect=0;image=https://upload.wikimedia.org/wikipedia/commons/thumb/d/d7/Android_robot.svg/1745px-Android_robot.svg.png;" vertex="1" parent="1">
          <mxGeometry x="399" y="122.39000000000001" width="15" height="17.61" as="geometry" />
        </mxCell>
      </root>
    </mxGraphModel>
  </diagram>
</mxfile>
